<svg version="1.1" id="avatar" xmlns="http://www.w3.org/2000/svg" viewBox="0 0 384.912 384.912" fill="#ffe633"><path d="M384.912 192.46C384.912 86.342 298.579 0 192.46 0 86.334 0 0 86.342 0 192.46c0 47.447 17.086 92.211 48.284 127.399l-.496.171 9.267 9.169 3.601 3.56.13-.049c35.823 33.677 82.351 52.202 131.675 52.202 48.999 0 95.243-18.436 130.984-51.746l.26.089 3.593-3.536 9.34-9.177-.504-.171c31.521-35.253 48.778-80.188 48.778-127.911zM192.46 368.672c-42.277 0-82.334-14.827-114.19-42.017l80.001-27.832-.545-6.292c-.049-.602-.13-1.187-.203-1.788-.057-.398-.138-.813-.138-1.211v-20.834c10.722 6.446 22.573 10.12 35.067 10.12 12.502 0 24.345-3.674 35.067-10.12v20.834c0 .634-.106 1.244-.179 1.861l-.87 8.064 79.595 27.67c-31.766 26.889-71.621 41.545-113.605 41.545zm-51.315-138.308c-11.323-17.533-18.289-40.789-18.289-66.354 0-54.348 31.222-98.559 69.605-98.559s69.605 44.211 69.605 98.559c0 25.556-6.958 48.788-18.265 66.321-4.259 6.609-9.137 12.38-14.518 17.159-10.689 9.494-23.288 15.07-36.814 15.07s-26.125-5.584-36.814-15.07c-5.39-4.771-10.251-10.534-14.51-17.126zm178.3 84.212l-75.653-26.32v-32.433c20.907-20.964 34.522-54.258 34.522-91.812 0-63.313-38.513-114.816-85.862-114.816S106.59 100.697 106.59 164.01c0 37.562 13.623 70.881 34.546 91.837v31.742l-76.165 26.499c-31.466-32.929-48.723-75.921-48.723-121.62 0-97.161 79.05-176.203 176.203-176.203s176.195 79.042 176.195 176.203c.009 45.951-17.418 89.098-49.201 122.108z"/></svg>