<svg version="1.1" id="Capa_1" xmlns="http://www.w3.org/2000/svg" viewBox="0 0 297.41 297.41" fill="#ffe633"><path d="M163.982 138.935h127.922a5.503 5.503 0 0 0 5.503-5.503c0-35.647-13.877-69.158-39.075-94.357C233.136 13.877 199.634 0 163.982 0a5.503 5.503 0 0 0-5.503 5.503v127.929a5.503 5.503 0 0 0 5.503 5.503zm5.502-127.808c63.128 2.804 113.985 53.664 116.794 116.802H169.484V11.127z"/><path d="M133.429 297.41c35.631 0 69.131-13.879 94.331-39.08 25.197-25.2 39.077-58.7 39.08-94.33a5.506 5.506 0 0 0-5.503-5.504h-122.42V36.069a5.504 5.504 0 0 0-5.504-5.503c-35.635 0-69.138 13.879-94.335 39.08C13.881 94.849.004 128.357.004 164c0 35.63 13.878 69.13 39.079 94.33 25.202 25.201 58.708 39.08 94.346 39.08zm-5.518-255.716V164a5.502 5.502 0 0 0 5.502 5.502h122.299c-2.896 64.949-56.641 116.902-122.283 116.902-67.502 0-122.419-54.91-122.419-122.404 0-65.661 51.952-119.415 116.901-122.306z"/></svg>