<svg version="1.1" id="Capa_1" xmlns="http://www.w3.org/2000/svg" viewBox="0 0 195.669 195.669" fill="#ffe633"><path d="M188.666 76.067a5.002 5.002 0 0 1-4.571 2.974h-31.081v111.628a5 5 0 0 1-5 5h-47.977c19.982-11.962 33.393-33.816 33.393-58.75 0-37.731-30.696-68.428-68.428-68.428-2.789 0-5.534.188-8.237.513l61.052-67.362a5.001 5.001 0 0 1 7.41.001L187.8 70.684a4.999 4.999 0 0 1 .866 5.383zM69.063 160.346h5.242c5.635 0 10.219-4.584 10.219-10.219s-4.584-10.219-10.219-10.219h-5.242v20.438zm-25.462-40.659c0 5.639 4.583 10.222 10.216 10.222h5.246v-20.438h-5.246c-5.633 0-10.216 4.583-10.216 10.216zm79.829 17.232c0 32.218-26.211 58.429-58.428 58.429-32.218 0-58.429-26.211-58.429-58.429 0-32.217 26.211-58.428 58.429-58.428 32.217 0 58.428 26.211 58.428 58.428zm-54.367-7.011V109.47h20.461c2.762 0 5-2.238 5-5s-2.238-5-5-5H69.063v-3.854a5 5 0 0 0-5-5 5 5 0 0 0-5 5v3.854h-5.246c-11.147 0-20.216 9.068-20.216 20.222 0 11.147 9.068 20.216 20.216 20.216h5.246v20.438H38.601c-2.762 0-5 2.238-5 5s2.238 5 5 5h20.462v5.498a5 5 0 0 0 5 5 5 5 0 0 0 5-5v-5.498h5.242c11.148 0 20.219-9.07 20.219-20.219s-9.07-20.219-20.219-20.219h-5.242z"/></svg>