<svg version="1.1" id="papers" xmlns="http://www.w3.org/2000/svg" viewBox="0 0 336.22 336.22" fill="#ffe633"><path d="M42.665 287.142c0 5.688 5.456 11.466 12.188 12.921l167.856 36.157v-22.98L42.665 276.851v10.291zm286.008-174.707V98.411L225.741 312.595v23.625l97.476-200.102c3.002-6.192 5.456-16.8 5.456-23.683zM204.174 284.219L51.251 251.374l-9.417 18.127 180.035 37.028L325.933 92.663l-12.379-1.358-91.649 184.365c-3.056 6.168-11.009 9.998-17.731 8.549z"/><path d="M19.849 209.292l158.519 34.307c1.382.298 2.812.443 4.269.443h.006c8.396 0 16.757-5.078 20.332-12.354l96.592-197.212c2.369-4.82 2.394-9.938.079-14.047-2.32-4.11-6.716-6.735-12.068-7.201L138.125.081c-9.194-.822-20 4.752-24.697 12.647L9.984 186.652c-2.719 4.561-3.185 9.676-1.291 14.029 1.897 4.348 5.962 7.478 11.156 8.611zm.856-16.265L124.147 19.106c2.137-3.599 7.688-6.628 12.121-6.628.262 0 .511.006.761.031l149.44 13.131c1.303.119 2.101.536 2.302.91.207.375.164 1.261-.408 2.433l-96.592 197.213c-1.735 3.538-6.942 6.064-10.766 5.212L22.479 197.102c-1.203-.263-2.089-.78-2.356-1.407-.268-.609-.043-1.608.582-2.668z"/><path d="M207.633 239.811c-3.581 7.276-11.936 12.361-20.326 12.361h-.012c-1.449 0-2.887-.152-4.269-.451L40.817 220.952l-4.202 7.033c-3.522 5.906-.928 11.85 5.818 13.262l155.614 32.56c6.734 1.406 14.669-2.454 17.707-8.635l95.612-194.683c3.045-6.177-.073-11.478-6.948-11.834l-7.873-.405-88.912 181.561z"/></svg>