<svg id="balance" viewBox="0 -35 490.91 490" xmlns="http://www.w3.org/2000/svg" fill="#ffe633"><path d="M483.621 253.07l-55.996-119.937 24.172 6.933c5.308 1.524 10.848-1.543 12.367-6.855a9.995 9.995 0 0 0-6.851-12.367l-168.07-48.23c.034-.72.054-1.438.054-2.16.004-19.958-13.469-37.4-32.781-42.427-19.313-5.03-39.582 3.621-49.313 21.043L39.117.844C33.81-.68 28.27 2.39 26.747 7.699c-1.52 5.309 1.546 10.844 6.855 12.367l33.171 9.52L6.7 158.258A10.004 10.004 0 0 0 0 167.69c-.012 32.465 19.555 61.73 49.559 74.125 30.004 12.399 64.523 5.477 87.43-17.527a79.244 79.244 0 0 0 23.921-56.598 10 10 0 0 0-7.289-9.62L97.79 38.487l103.883 29.805a44.204 44.204 0 0 0-.055 2.164c.031 20.348 14.035 38.008 33.84 42.672V311.21h-27.602c-22.054 0-40.398 17.7-40.398 39.758v5.804c-18.559 3.907-31.883 20.227-32 39.196v14a10.558 10.558 0 0 0 10.398 10.242H345.06a10.558 10.558 0 0 0 10.398-10.242v-14c-.117-18.969-13.441-35.29-32-39.196v-5.804c0-22.059-18.348-39.758-40.398-39.758h-27.602V113.129a44 44 0 0 0 28.254-21.297l113.187 32.48L336.7 253.258a10 10 0 0 0-6.703 9.43c-.008 32.464 19.559 61.73 49.563 74.125 30.003 12.398 64.52 5.48 87.425-17.524a79.263 79.263 0 0 0 23.926-56.601 10 10 0 0 0-7.289-9.618zM80.203 47.613l51.168 109.598H29.04zm0 179.797c-29.453.172-54.644-21.125-59.371-50.2h119.2c-5.09 29.052-30.333 50.235-59.829 50.2zm255.254 168.56v4.242h-180v-4.242c0-11.028 9.375-19.758 20.398-19.758H315.06c11.023 0 20.398 8.73 20.398 19.758zm-32-45v5.242h-116v-5.242c0-11.028 9.375-19.758 20.398-19.758h75.204c11.023 0 20.398 8.73 20.398 19.758zm-58-256.676a23.853 23.853 0 0 1-22.555-16.035A23.853 23.853 0 0 1 258.32 50.36a23.852 23.852 0 0 1 10.309 25.68 10.051 10.051 0 0 0-.563 1.952 23.872 23.872 0 0 1-22.609 16.301zm215.914 157.918H359.04l51.164-109.598zm-51.168 70.2c-29.453.171-54.644-21.126-59.371-50.2h119.2c-5.09 29.05-30.333 50.234-59.829 50.2zm0 0"/></svg>