<svg version="1.1" id="Capa_1" xmlns="http://www.w3.org/2000/svg" viewBox="0 0 417.443 417.443" fill="#ffe633"><path d="M379.805 31.78H37.638C16.885 31.78 0 48.665 0 69.419v278.604c0 20.753 16.885 37.64 37.638 37.64h342.167c20.754 0 37.639-16.887 37.639-37.64V69.418c-.001-20.754-16.885-37.638-37.639-37.638zM347.16 70.369c14.131 0 25.588 11.455 25.588 25.588 0 14.131-11.457 25.586-25.588 25.586-14.133 0-25.588-11.455-25.588-25.586 0-14.133 11.455-25.588 25.588-25.588zm-73.055 0c14.133 0 25.588 11.455 25.588 25.588 0 14.131-11.455 25.586-25.588 25.586-14.131 0-25.586-11.455-25.586-25.586.001-14.133 11.456-25.588 25.586-25.588zm100.961 272.914H42.375V159.446h332.691v183.837z"/></svg>