<svg version="1.1" id="origami" xmlns="http://www.w3.org/2000/svg" viewBox="0 0 344.091 344.091" fill="#ffe633"><path d="M301.264 108.967a5.929 5.929 0 0 0-.31-1.545c-.066-.191-.113-.37-.197-.555-.292-.632-.656-1.235-1.169-1.748L196.217 1.742c-.513-.513-1.11-.877-1.742-1.164-.191-.089-.382-.137-.579-.203a5.861 5.861 0 0 0-1.51-.298c-.137-.011-.256-.077-.393-.077H48.728a5.965 5.965 0 0 0-5.967 5.967v332.158c0 3.3 2.667 5.967 5.967 5.967h246.635c3.3 0 5.967-2.667 5.967-5.967V109.337c.006-.131-.06-.245-.066-.37zm-20.299-5.597h-82.999V20.371l82.999 82.999zM54.701 332.152V11.934h131.331v97.403a5.965 5.965 0 0 0 5.967 5.967h97.403v216.854H54.701v-.006z"/></svg>